<svg width="22" height="19" viewBox="0 0 22 19" fill="none" xmlns="http://www.w3.org/2000/svg">
<rect width="22" height="19"/>
<path d="M12.7266 4.302L11.6923 5.33692V5.4134C12.548 6.46705 13.0769 7.90938 13.0769 9.5C13.0769 11.0922 12.548 12.5329 11.6923 13.5866V13.6631L12.7266 14.698C13.8011 13.3493 14.4615 11.5183 14.4615 9.5C14.4615 7.48168 13.8011 5.65067 12.7266 4.302Z" fill="#030104"/>
<path d="M2 6.37808V9.5V12.6219H4.76923L8.92308 17.3048V1.69521L4.76923 6.37808H2Z" fill="#030104"/>
<path d="M14.9046 2.11823L13.8689 3.1547C15.1068 4.89361 15.8461 7.09925 15.8461 9.5C15.8461 11.9008 15.1068 14.108 13.8703 15.8437L14.9046 16.8802C16.3598 14.8681 17.2308 12.3004 17.2308 9.5C17.2308 6.7012 16.3598 4.13186 14.9046 2.11823Z" fill="#030104"/>
<path d="M17.0203 0L15.9791 1.04272C17.6268 3.34982 18.6154 6.29223 18.6154 9.5C18.6154 12.7078 17.6268 15.6486 15.9791 17.9573L17.0203 19C18.8798 16.4151 20 13.1058 20 9.5C20 5.89418 18.8798 2.58495 17.0203 0Z" fill="#030104"/>
</svg>
