<svg width="150" height="150" viewBox="0 0 150 150" fill="none" xmlns="http://www.w3.org/2000/svg">
<g clip-path="url(#clip0_5_33)">
<rect width="150" height="150" fill="white"/>
<path d="M76 75V45L135 75H76Z" fill="#3AB8FF" stroke="#3AB8FF"/>
<rect x="15" y="75" width="60" height="30" fill="#3AB8FF"/>
<path d="M75.3608 -0.36084C75.1616 -0.560135 74.8384 -0.560135 74.6392 -0.36084L71.3916 2.88675C71.1923 3.08604 71.1923 3.40915 71.3916 3.60844C71.5908 3.80772 71.914 3.80772 72.1132 3.60844L75 0.721695L77.8868 3.60844C78.086 3.80772 78.4092 3.80772 78.6084 3.60844C78.8077 3.40915 78.8077 3.08604 78.6084 2.88675L75.3608 -0.36084ZM75.5103 150L75.5103 0H74.4897L74.4897 150H75.5103Z" fill="black"/>
<path d="M150.367 75.3673C150.57 75.1644 150.57 74.8356 150.367 74.6327L147.062 71.3272C146.859 71.1244 146.53 71.1244 146.327 71.3272C146.124 71.5301 146.124 71.8589 146.327 72.0618L149.265 75L146.327 77.9382C146.124 78.1411 146.124 78.4699 146.327 78.6728C146.53 78.8756 146.859 78.8756 147.062 78.6728L150.367 75.3673ZM0 75.5194H150V74.4806H0V75.5194Z" fill="black"/>
<line x1="72" y1="44.4523" x2="78" y2="44.4523" stroke="black" stroke-width="1.09545"/>
<line x1="72" y1="134.452" x2="78" y2="134.452" stroke="black" stroke-width="1.09545"/>
<line x1="72" y1="104.452" x2="78" y2="104.452" stroke="black" stroke-width="1.09545"/>
<line x1="72" y1="14.4523" x2="78" y2="14.4523" stroke="black" stroke-width="1.09545"/>
<line x1="15.5477" y1="72" x2="15.5477" y2="78" stroke="black" stroke-width="1.09545"/>
<line x1="45.5477" y1="72" x2="45.5477" y2="78" stroke="black" stroke-width="1.09545"/>
<line x1="135.548" y1="72" x2="135.548" y2="78" stroke="black" stroke-width="1.09545"/>
<line x1="105.548" y1="72" x2="105.548" y2="78" stroke="black" stroke-width="1.09545"/>
<path d="M46 74.5C46 70.626 46.7372 66.7899 48.1694 63.2108C49.6017 59.6317 51.701 56.3797 54.3475 53.6403C56.9939 50.901 60.1357 48.7281 63.5935 47.2456C67.0513 45.763 70.7573 45 74.5 45L74.5 74.5L46 74.5Z" fill="#3AB8FF"/>
<path d="M61.3068 12.0455C61.1648 12.0455 61.0381 12.0336 60.9268 12.0099C60.8156 11.9886 60.7386 11.9673 60.696 11.946L60.9091 11.2074C61.1127 11.2595 61.2926 11.2784 61.4489 11.2642C61.6051 11.25 61.7436 11.1802 61.8643 11.0547C61.9875 10.9316 62.0999 10.7315 62.2017 10.4545L62.358 10.0284L60.3409 4.54545H61.25L62.7557 8.89205H62.8125L64.3182 4.54545H65.2273L62.9119 10.7955C62.8078 11.0772 62.6787 11.3104 62.5249 11.495C62.371 11.6821 62.1922 11.8205 61.9886 11.9105C61.7874 12.0005 61.5601 12.0455 61.3068 12.0455Z" fill="black"/>
<path d="M144.392 86.5455L145.699 88.7756L147.006 86.5455H147.972L146.21 89.2727L147.972 92H147.006L145.699 89.8835L144.392 92H143.426L145.159 89.2727L143.426 86.5455H144.392Z" fill="black"/>
<path d="M83.0568 19V10.2727H86.0057C86.6875 10.2727 87.2472 10.3892 87.6847 10.6222C88.1222 10.8523 88.446 11.169 88.6562 11.5724C88.8665 11.9759 88.9716 12.4347 88.9716 12.9489C88.9716 13.4631 88.8665 13.919 88.6562 14.3168C88.446 14.7145 88.1236 15.027 87.6889 15.2543C87.2543 15.4787 86.6989 15.5909 86.0227 15.5909H83.6364V14.6364H85.9886C86.4545 14.6364 86.8295 14.5682 87.1136 14.4318C87.4006 14.2955 87.608 14.1023 87.7358 13.8523C87.8665 13.5994 87.9318 13.2983 87.9318 12.9489C87.9318 12.5994 87.8665 12.294 87.7358 12.0327C87.6051 11.7713 87.3963 11.5696 87.1094 11.4276C86.8224 11.2827 86.4432 11.2102 85.9716 11.2102H84.1136V19H83.0568ZM87.1648 15.0795L89.3125 19H88.0852L85.9716 15.0795H87.1648Z" fill="black"/>
<path d="M83.0568 49V40.2727H86.0057C86.6875 40.2727 87.2472 40.3892 87.6847 40.6222C88.1222 40.8523 88.446 41.169 88.6562 41.5724C88.8665 41.9759 88.9716 42.4347 88.9716 42.9489C88.9716 43.4631 88.8665 43.919 88.6562 44.3168C88.446 44.7145 88.1236 45.027 87.6889 45.2543C87.2543 45.4787 86.6989 45.5909 86.0227 45.5909H83.6364V44.6364H85.9886C86.4545 44.6364 86.8295 44.5682 87.1136 44.4318C87.4006 44.2955 87.608 44.1023 87.7358 43.8523C87.8665 43.5994 87.9318 43.2983 87.9318 42.9489C87.9318 42.5994 87.8665 42.294 87.7358 42.0327C87.6051 41.7713 87.3963 41.5696 87.1094 41.4276C86.8224 41.2827 86.4432 41.2102 85.9716 41.2102H84.1136V49H83.0568ZM87.1648 45.0795L89.3125 49H88.0852L85.9716 45.0795H87.1648ZM93.6815 39.8636L90.869 50.3125H89.9485L92.761 39.8636H93.6815ZM94.8565 49V48.233L97.7372 45.0795C98.0753 44.7102 98.3537 44.3892 98.5724 44.1165C98.7912 43.8409 98.9531 43.5824 99.0582 43.3409C99.1662 43.0966 99.2202 42.8409 99.2202 42.5739C99.2202 42.267 99.1463 42.0014 98.9986 41.777C98.8537 41.5526 98.6548 41.3793 98.402 41.2571C98.1491 41.1349 97.8651 41.0739 97.5497 41.0739C97.2145 41.0739 96.9219 41.1435 96.6719 41.2827C96.4247 41.419 96.233 41.6108 96.0966 41.858C95.9631 42.1051 95.8963 42.3949 95.8963 42.7273H94.8906C94.8906 42.2159 95.0085 41.767 95.2443 41.3807C95.4801 40.9943 95.8011 40.6932 96.2074 40.4773C96.6165 40.2614 97.0753 40.1534 97.5838 40.1534C98.0952 40.1534 98.5483 40.2614 98.9432 40.4773C99.3381 40.6932 99.6477 40.9844 99.8722 41.3509C100.097 41.7173 100.209 42.125 100.209 42.5739C100.209 42.8949 100.151 43.2088 100.034 43.5156C99.9205 43.8196 99.7216 44.1591 99.4375 44.5341C99.1562 44.9062 98.7656 45.3608 98.2656 45.8977L96.3054 47.9943V48.0625H100.362V49H94.8565Z" fill="black"/>
<path d="M37.6705 64.1676V65.1051H33.8523V64.1676H37.6705ZM39.5763 69V60.2727H42.5252C43.207 60.2727 43.7667 60.3892 44.2042 60.6222C44.6417 60.8523 44.9656 61.169 45.1758 61.5724C45.386 61.9759 45.4911 62.4347 45.4911 62.9489C45.4911 63.4631 45.386 63.919 45.1758 64.3168C44.9656 64.7145 44.6431 65.027 44.2085 65.2543C43.7738 65.4787 43.2184 65.5909 42.5423 65.5909H40.1559V64.6364H42.5082C42.9741 64.6364 43.3491 64.5682 43.6332 64.4318C43.9201 64.2955 44.1275 64.1023 44.2553 63.8523C44.386 63.5994 44.4513 63.2983 44.4513 62.9489C44.4513 62.5994 44.386 62.294 44.2553 62.0327C44.1246 61.7713 43.9158 61.5696 43.6289 61.4276C43.342 61.2827 42.9627 61.2102 42.4911 61.2102H40.6332V69H39.5763ZM43.6843 65.0795L45.832 69H44.6048L42.4911 65.0795H43.6843ZM50.201 59.8636L47.3885 70.3125H46.468L49.2805 59.8636H50.201ZM51.3761 69V68.233L54.2567 65.0795C54.5948 64.7102 54.8732 64.3892 55.092 64.1165C55.3107 63.8409 55.4727 63.5824 55.5778 63.3409C55.6857 63.0966 55.7397 62.8409 55.7397 62.5739C55.7397 62.267 55.6658 62.0014 55.5181 61.777C55.3732 61.5526 55.1744 61.3793 54.9215 61.2571C54.6687 61.1349 54.3846 61.0739 54.0692 61.0739C53.734 61.0739 53.4414 61.1435 53.1914 61.2827C52.9442 61.419 52.7525 61.6108 52.6161 61.858C52.4826 62.1051 52.4158 62.3949 52.4158 62.7273H51.4102C51.4102 62.2159 51.5281 61.767 51.7638 61.3807C51.9996 60.9943 52.3207 60.6932 52.7269 60.4773C53.136 60.2614 53.5948 60.1534 54.1033 60.1534C54.6147 60.1534 55.0678 60.2614 55.4627 60.4773C55.8576 60.6932 56.1673 60.9844 56.3917 61.3509C56.6161 61.7173 56.7283 62.125 56.7283 62.5739C56.7283 62.8949 56.6701 63.2088 56.5536 63.5156C56.44 63.8196 56.2411 64.1591 55.957 64.5341C55.6758 64.9062 55.2852 65.3608 54.7852 65.8977L52.8249 67.9943V68.0625H56.8817V69H51.3761Z" fill="black"/>
<path d="M80.6705 107.168V108.105H76.8523V107.168H80.6705ZM82.5763 112V103.273H85.5252C86.207 103.273 86.7667 103.389 87.2042 103.622C87.6417 103.852 87.9656 104.169 88.1758 104.572C88.386 104.976 88.4911 105.435 88.4911 105.949C88.4911 106.463 88.386 106.919 88.1758 107.317C87.9656 107.714 87.6431 108.027 87.2085 108.254C86.7738 108.479 86.2184 108.591 85.5423 108.591H83.1559V107.636H85.5082C85.9741 107.636 86.3491 107.568 86.6332 107.432C86.9201 107.295 87.1275 107.102 87.2553 106.852C87.386 106.599 87.4513 106.298 87.4513 105.949C87.4513 105.599 87.386 105.294 87.2553 105.033C87.1246 104.771 86.9158 104.57 86.6289 104.428C86.342 104.283 85.9627 104.21 85.4911 104.21H83.6332V112H82.5763ZM86.6843 108.08L88.832 112H87.6048L85.4911 108.08H86.6843ZM93.201 102.864L90.3885 113.312H89.468L92.2805 102.864H93.201ZM94.3761 112V111.233L97.2567 108.08C97.5948 107.71 97.8732 107.389 98.092 107.116C98.3107 106.841 98.4727 106.582 98.5778 106.341C98.6857 106.097 98.7397 105.841 98.7397 105.574C98.7397 105.267 98.6658 105.001 98.5181 104.777C98.3732 104.553 98.1744 104.379 97.9215 104.257C97.6687 104.135 97.3846 104.074 97.0692 104.074C96.734 104.074 96.4414 104.143 96.1914 104.283C95.9442 104.419 95.7525 104.611 95.6161 104.858C95.4826 105.105 95.4158 105.395 95.4158 105.727H94.4102C94.4102 105.216 94.5281 104.767 94.7638 104.381C94.9996 103.994 95.3207 103.693 95.7269 103.477C96.136 103.261 96.5948 103.153 97.1033 103.153C97.6147 103.153 98.0678 103.261 98.4627 103.477C98.8576 103.693 99.1673 103.984 99.3917 104.351C99.6161 104.717 99.7283 105.125 99.7283 105.574C99.7283 105.895 99.6701 106.209 99.5536 106.516C99.44 106.82 99.2411 107.159 98.957 107.534C98.6758 107.906 98.2852 108.361 97.7852 108.898L95.8249 110.994V111.062H99.8817V112H94.3761Z" fill="black"/>
<path d="M97.0568 69V60.2727H100.006C100.688 60.2727 101.247 60.3892 101.685 60.6222C102.122 60.8523 102.446 61.169 102.656 61.5724C102.866 61.9759 102.972 62.4347 102.972 62.9489C102.972 63.4631 102.866 63.919 102.656 64.3168C102.446 64.7145 102.124 65.027 101.689 65.2543C101.254 65.4787 100.699 65.5909 100.023 65.5909H97.6364V64.6364H99.9886C100.455 64.6364 100.83 64.5682 101.114 64.4318C101.401 64.2955 101.608 64.1023 101.736 63.8523C101.866 63.5994 101.932 63.2983 101.932 62.9489C101.932 62.5994 101.866 62.294 101.736 62.0327C101.605 61.7713 101.396 61.5696 101.109 61.4276C100.822 61.2827 100.443 61.2102 99.9716 61.2102H98.1136V69H97.0568ZM101.165 65.0795L103.312 69H102.085L99.9716 65.0795H101.165ZM107.681 59.8636L104.869 70.3125H103.949L106.761 59.8636H107.681ZM108.857 69V68.233L111.737 65.0795C112.075 64.7102 112.354 64.3892 112.572 64.1165C112.791 63.8409 112.953 63.5824 113.058 63.3409C113.166 63.0966 113.22 62.8409 113.22 62.5739C113.22 62.267 113.146 62.0014 112.999 61.777C112.854 61.5526 112.655 61.3793 112.402 61.2571C112.149 61.1349 111.865 61.0739 111.55 61.0739C111.214 61.0739 110.922 61.1435 110.672 61.2827C110.425 61.419 110.233 61.6108 110.097 61.858C109.963 62.1051 109.896 62.3949 109.896 62.7273H108.891C108.891 62.2159 109.009 61.767 109.244 61.3807C109.48 60.9943 109.801 60.6932 110.207 60.4773C110.616 60.2614 111.075 60.1534 111.584 60.1534C112.095 60.1534 112.548 60.2614 112.943 60.4773C113.338 60.6932 113.648 60.9844 113.872 61.3509C114.097 61.7173 114.209 62.125 114.209 62.5739C114.209 62.8949 114.151 63.2088 114.034 63.5156C113.92 63.8196 113.722 64.1591 113.438 64.5341C113.156 64.9062 112.766 65.3608 112.266 65.8977L110.305 67.9943V68.0625H114.362V69H108.857Z" fill="black"/>
<path d="M12.6705 64.1676V65.1051H8.85227V64.1676H12.6705ZM14.5763 69V60.2727H17.5252C18.207 60.2727 18.7667 60.3892 19.2042 60.6222C19.6417 60.8523 19.9656 61.169 20.1758 61.5724C20.386 61.9759 20.4911 62.4347 20.4911 62.9489C20.4911 63.4631 20.386 63.919 20.1758 64.3168C19.9656 64.7145 19.6431 65.027 19.2085 65.2543C18.7738 65.4787 18.2184 65.5909 17.5423 65.5909H15.1559V64.6364H17.5082C17.9741 64.6364 18.3491 64.5682 18.6332 64.4318C18.9201 64.2955 19.1275 64.1023 19.2553 63.8523C19.386 63.5994 19.4513 63.2983 19.4513 62.9489C19.4513 62.5994 19.386 62.294 19.2553 62.0327C19.1246 61.7713 18.9158 61.5696 18.6289 61.4276C18.342 61.2827 17.9627 61.2102 17.4911 61.2102H15.6332V69H14.5763ZM18.6843 65.0795L20.832 69H19.6048L17.4911 65.0795H18.6843Z" fill="black"/>
<path d="M83.6705 134.168V135.105H79.8523V134.168H83.6705ZM85.5763 139V130.273H88.5252C89.207 130.273 89.7667 130.389 90.2042 130.622C90.6417 130.852 90.9656 131.169 91.1758 131.572C91.386 131.976 91.4911 132.435 91.4911 132.949C91.4911 133.463 91.386 133.919 91.1758 134.317C90.9656 134.714 90.6431 135.027 90.2085 135.254C89.7738 135.479 89.2184 135.591 88.5423 135.591H86.1559V134.636H88.5082C88.9741 134.636 89.3491 134.568 89.6332 134.432C89.9201 134.295 90.1275 134.102 90.2553 133.852C90.386 133.599 90.4513 133.298 90.4513 132.949C90.4513 132.599 90.386 132.294 90.2553 132.033C90.1246 131.771 89.9158 131.57 89.6289 131.428C89.342 131.283 88.9627 131.21 88.4911 131.21H86.6332V139H85.5763ZM89.6843 135.08L91.832 139H90.6048L88.4911 135.08H89.6843Z" fill="black"/>
<path d="M132.057 69V60.2727H135.006C135.688 60.2727 136.247 60.3892 136.685 60.6222C137.122 60.8523 137.446 61.169 137.656 61.5724C137.866 61.9759 137.972 62.4347 137.972 62.9489C137.972 63.4631 137.866 63.919 137.656 64.3168C137.446 64.7145 137.124 65.027 136.689 65.2543C136.254 65.4787 135.699 65.5909 135.023 65.5909H132.636V64.6364H134.989C135.455 64.6364 135.83 64.5682 136.114 64.4318C136.401 64.2955 136.608 64.1023 136.736 63.8523C136.866 63.5994 136.932 63.2983 136.932 62.9489C136.932 62.5994 136.866 62.294 136.736 62.0327C136.605 61.7713 136.396 61.5696 136.109 61.4276C135.822 61.2827 135.443 61.2102 134.972 61.2102H133.114V69H132.057ZM136.165 65.0795L138.312 69H137.085L134.972 65.0795H136.165Z" fill="black"/>
    <ellipse rx="5" ry="5" fill="red" cx="11" cy="10" visibility="hidden" id="old_pointer"/>
</g>
<defs>
<clipPath id="clip0_5_33">
<rect width="150" height="150" fill="white"/>
</clipPath>
</defs>
</svg>
